<svg aria-hidden="true" style="width:0;height:0;position:absolute;overflow:hidden" xmlns="http://www.w3.org/2000/svg"><defs><symbol id="icon-minus" viewBox="0 0 32 32"><path fill="none" stroke="#00204a" style="stroke:var(--color1,#00204a)" stroke-width="1.524" d="M.487 15.631h31.014"/></symbol><symbol id="icon-plus" viewBox="0 0 32 32"><path fill="none" stroke="#00204a" style="stroke:var(--color1,#00204a)" stroke-width="1.524" d="M16.754.296V31.31M.487 15.042h31.014"/></symbol><symbol id="icon-bed" viewBox="0 0 32 32"><path d="M29.103 15.32V9.3c0-.726-.59-1.316-1.316-1.316H5.369c-.726 0-1.316.59-1.316 1.316v6.02c-1.428.705-1.794 1.44-1.794 2.007v6.321c0 .479.389.868.868.868h.978a.87.87 0 0 0 .851-.698l.232-1.16a.479.479 0 0 1 .468-.384h21.845c.227 0 .424.161.468.384l.232 1.161a.871.871 0 0 0 .851.698h.977a.868.868 0 0 0 .868-.868v-6.321c0-.567-.365-1.301-1.794-2.007zM4.891 9.301c0-.263.214-.477.477-.477h22.418c.263 0 .477.214.477.477v5.658a16.45 16.45 0 0 0-1.754-.543c-.13-.033-.262-.065-.395-.097a1.76 1.76 0 0 0 .299-.983v-1.345c0-.973-.792-1.765-1.765-1.765h-6.725c-.539 0-1.021.243-1.345.624a1.76 1.76 0 0 0-1.345-.624H8.507c-.973 0-1.765.792-1.765 1.765v1.345c0 .357.108.697.3.983-.134.032-.266.064-.396.097a16.45 16.45 0 0 0-1.754.543V9.301zm20.683 2.69v1.345a.92.92 0 0 1-.42.775c-2.34-.462-5.17-.722-8.157-.744v-1.376c0-.51.415-.926.926-.926h6.725c.51 0 .926.415.926.926zm-9.416 0v1.376c-2.986.022-5.817.282-8.157.745a.925.925 0 0 1-.42-.775v-1.345c0-.51.415-.926.926-.926h6.726c.51 0 .926.415.926.926zm13.9 11.657a.029.029 0 0 1-.029.029h-.977a.028.028 0 0 1-.028-.023l-.232-1.161a1.32 1.32 0 0 0-1.291-1.058H5.656a1.32 1.32 0 0 0-1.291 1.058l-.232 1.161a.03.03 0 0 1-.028.023h-.978a.029.029 0 0 1-.029-.029v-3.616h22.896a.42.42 0 0 0 0-.839H3.098v-1.866c0-.552.987-1.393 3.755-2.099 2.592-.661 6.046-1.025 9.725-1.025s7.132.364 9.725 1.025c2.769.706 3.755 1.547 3.755 2.099v1.866h-2.271a.42.42 0 1 0 0 .839h2.271v3.616z"/></symbol><symbol id="icon-bath" viewBox="0 0 32 32"><path d="M30.362 16.957h-.509V6.266a4.562 4.562 0 0 0-4.582-4.582c-2.253 0-3.874 1.671-4.056 4.119a2.517 2.517 0 0 0-2.054 2.499c0 .305.204.509.509.509h4.073c.305 0 .509-.204.509-.509a2.516 2.516 0 0 0-2.015-2.492c.152-1.618 1.124-3.108 3.033-3.108a3.542 3.542 0 0 1 3.564 3.564v10.691H13.511a2.516 2.516 0 0 0-2.496-2.036c-.509-.611-1.222-1.018-2.036-1.018-.967 0-1.833.56-2.24 1.375-.407-.204-.865-.356-1.324-.356a2.515 2.515 0 0 0-2.496 2.036H2.87c-.866 0-1.527.662-1.527 1.527s.662 1.527 1.527 1.527h.612l1.374 5.448a3.592 3.592 0 0 0 3.462 2.698h.407l-.662 1.324c-.153.255-.051.56.204.662.051.051.153.051.204.051a.534.534 0 0 0 .458-.255l.891-1.782h14.128l.866 1.731c.102.204.255.305.458.305.102 0 .153 0 .204-.102.204-.102.305-.407.204-.662l-.638-1.276a3.605 3.605 0 0 0 3.336-2.645l1.386-5.499h.599c.866 0 1.527-.662 1.527-1.527s-.662-1.527-1.527-1.527zm-7.178-9.164h-2.902c.204-.611.815-1.018 1.477-1.018s1.222.407 1.425 1.018zM5.416 15.939c.458 0 .865.204 1.222.56.102.153.305.204.509.153s.305-.204.356-.407c.153-.764.764-1.324 1.527-1.324.56 0 1.069.255 1.324.764a.513.513 0 0 0 .56.255h.153c.662 0 1.222.407 1.425 1.018H3.99a1.483 1.483 0 0 1 1.426-1.018zm22.044 9.265c-.305 1.12-1.324 1.935-2.494 1.935H8.369c-1.171 0-2.189-.815-2.495-1.935L4.55 20.011h24.132l-1.222 5.193zm2.902-6.211H2.87c-.305 0-.509-.204-.509-.509s.204-.509.509-.509h27.492c.305 0 .509.204.509.509s-.204.509-.509.509z"/><path d="M19.673 11.106c.305 0 .509-.204.509-.509v-.255c0-.305-.204-.509-.509-.509s-.509.204-.509.509v.255c0 .305.204.509.509.509zM19.673 13.445a.51.51 0 0 0 .509-.509v-.56c0-.305-.204-.509-.509-.509s-.509.204-.509.509v.56c0 .305.204.509.509.509zM19.673 15.431c.305 0 .509-.204.509-.509v-.255c0-.305-.204-.509-.509-.509s-.509.204-.509.509v.255c0 .305.204.509.509.509zM21.706 11.106c.305 0 .509-.204.509-.509v-.255c0-.305-.204-.509-.509-.509s-.509.204-.509.509v.255c0 .305.204.509.509.509zM21.197 12.936c0 .305.204.509.509.509s.509-.255.509-.509v-.56c0-.305-.204-.509-.509-.509s-.509.204-.509.509v.56zM21.197 14.922c0 .305.204.509.509.509s.509-.204.509-.509v-.255c0-.305-.204-.509-.509-.509s-.509.204-.509.509v.255zM23.744 11.106c.305 0 .509-.204.509-.509v-.255c0-.305-.204-.509-.509-.509s-.509.204-.509.509v.255c0 .305.204.509.509.509zM23.234 12.936c0 .305.204.509.509.509s.509-.255.509-.509v-.56c0-.305-.204-.509-.509-.509s-.509.204-.509.509v.56zM23.234 14.922c0 .305.204.509.509.509s.509-.204.509-.509v-.255c0-.305-.204-.509-.509-.509s-.509.204-.509.509v.255z"/></symbol><symbol id="icon-roof" viewBox="0 0 32 32"><path d="M5.388 19.511v5.746c0 .247.2.447.447.447h21.478c.247 0 .448-.2.448-.447v-1.272l1.084.769a.446.446 0 0 0 .464.032.445.445 0 0 0 .243-.397v-2.712a.446.446 0 0 0-.189-.365l-12.34-8.762v-1.295l2.436-1.729a.447.447 0 0 0 .106-.625l-1.282-1.807a.443.443 0 0 0-.624-.106L3.788 16.837a.446.446 0 0 0-.189.365v2.712a.448.448 0 0 0 .707.365l1.084-.769zm10.74-7.621-9.844 6.986v5.934h20.583v-1.46l-10.55-7.486a.449.449 0 0 1-.189-.365V11.89zm.895 1.759v1.62l11.634 8.255V21.91l-11.634-8.26zm.789-5.671.764 1.077-14.083 9.994v-1.614l13.318-9.456z"/></symbol><symbol id="icon-garage" viewBox="0 0 32 32"><path d="M31.38 5.523a.51.51 0 0 0 .509-.509V1.959a.51.51 0 0 0-.509-.509H1.851a.51.51 0 0 0-.509.509v3.055a.51.51 0 0 0 .509.509h1.018v25.456H1.851a.51.51 0 0 0 0 1.018H31.38a.51.51 0 0 0 0-1.018h-1.018V5.523h1.018zm-4.072 25.456H5.925v-3.055h21.383v3.055zm0-4.073H5.925v-3.055h21.383v3.055zm0-4.073H5.925v-3.055h21.383v3.055zm0-4.073H5.925v-3.055h21.383v3.055zm0-4.073H5.925v-3.055h21.383v3.055zm0-4.073H5.925V7.559h21.383v3.055zm2.036 20.365h-1.018V7.051a.51.51 0 0 0-.509-.509H5.416a.51.51 0 0 0-.509.509v23.928H3.889V5.523h25.456v25.456zM2.361 4.505V2.469h28.511v2.036H2.361z"/><path d="M15.089 30.468h3.055a.51.51 0 0 0 0-1.018h-3.055a.51.51 0 0 0 0 1.018z"/></symbol><symbol id="icon-floor" viewBox="0 0 32 32"><path d="M3.157 28.733c0 .247.2.447.447.447h25.939c.247 0 .447-.2.447-.447v-6.452c0-.247-.2-.447-.447-.447h-1.978v-6.005c0-.247-.2-.447-.447-.447h-1.501V9.377c0-.247-.2-.447-.447-.447h-1.155V2.925c0-.247-.2-.447-.447-.447H9.581c-.247 0-.447.2-.447.447V8.93H7.979c-.247 0-.447.2-.447.447v6.005H6.031c-.247 0-.447.2-.447.447v6.005H3.606c-.247 0-.447.2-.447.447v6.452zm6.871-25.361H23.12v5.557H10.028V3.372zM8.426 9.824h16.296v5.557H8.426V9.824zm-1.949 6.452h20.194v5.557H6.477v-5.557zm-2.425 6.452h25.044v5.558H4.052v-5.558z"/></symbol><symbol id="icon-zoom" viewBox="0 0 32 32"><path fill="#f4d059" style="fill:var(--color2,#f4d059)" d="m30.165 28.233-8.186-8.186c3.73-4.538 3.476-11.274-.762-15.512C16.708.027 9.373.027 4.864 4.535s-4.508 11.844 0 16.353c4.237 4.237 10.972 4.493 15.512.762l8.186 8.186a1.133 1.133 0 1 0 1.603-1.603zm-10.552-8.948c-3.624 3.624-9.522 3.624-13.146 0s-3.624-9.522 0-13.146c3.624-3.624 9.522-3.625 13.146 0s3.624 9.522 0 13.146z"/><path fill="#f4d059" style="fill:var(--color2,#f4d059)" d="M18.592 11.572h-4.417V7.155a1.134 1.134 0 0 0-2.268 0v4.417H7.49a1.134 1.134 0 0 0 0 2.268h4.417v4.417a1.134 1.134 0 0 0 2.268 0V13.84h4.417a1.134 1.134 0 0 0 0-2.268z"/></symbol><symbol id="icon-pdf" viewBox="0 0 33 32"><path fill="#00204a" style="fill:var(--color1,#00204a)" d="M30.175 5.072 25.836.733a1.437 1.437 0 0 0-1.02-.423H6.547c-.795 0-1.443.647-1.443 1.443v14.284H4.089a1.936 1.936 0 0 0-1.934 1.934v8.847c0 1.067.868 1.934 1.934 1.934h15.236c.796 0 1.443-.647 1.443-1.443v-6.881c0-.796-.647-1.443-1.443-1.443H4.089a1.016 1.016 0 0 1 0-2.03h1.015v.523a.46.46 0 0 0 .92 0V1.751c0-.288.235-.523.523-.523h17.725v4.455c0 .525.427.951.951.951h4.455v23.622a.524.524 0 0 1-.523.523H6.547a.524.524 0 0 1-.523-.523.46.46 0 0 0-.92 0c0 .796.647 1.443 1.443 1.443h22.608c.796 0 1.443-.647 1.443-1.443V6.089c0-.385-.15-.748-.422-1.02zM4.089 19.906h15.236c.288 0 .523.235.523.523v6.881a.524.524 0 0 1-.523.523H4.089a1.016 1.016 0 0 1-1.015-1.015v-7.2a1.92 1.92 0 0 0 1.015.288zM25.191 5.685V1.389l4.328 4.328h-4.296a.032.032 0 0 1-.032-.032z"/><path fill="#00204a" style="fill:var(--color1,#00204a)" d="M15.184 26.28a.46.46 0 0 0 .46-.46v-1.529h.996a.46.46 0 0 0 0-.92h-.996v-.995h1.122a.46.46 0 0 0 0-.92h-1.582a.46.46 0 0 0-.46.46v3.903c0 .254.206.46.46.46zM10.353 26.102a.458.458 0 0 0 .324.133h.002c.033 0 .803-.003 1.111-.009 1.136-.02 1.961-1.012 1.961-2.359 0-1.416-.804-2.368-2.001-2.368h-1.081a.46.46 0 0 0-.459.461v3.753c0 .032.003.062.009.092a.46.46 0 0 0 .134.296zm1.397-3.682c.797 0 1.081.748 1.081 1.448 0 .982-.531 1.43-1.057 1.44-.146.003-.407.005-.638.006-.002-.451-.005-2.424-.005-2.894h.62zM6.533 26.296a.46.46 0 0 0 .46-.46v-1.251l.635-.002c.877 0 1.591-.704 1.591-1.569s-.714-1.569-1.591-1.569H6.533c-.122 0-.239.049-.326.135s-.134.203-.134.325v3.932c0 .254.206.46.46.46zm1.095-3.932c.364 0 .671.298.671.65s-.307.65-.671.65l-.63.002-.004-1.302h.634zM15.147 13.644c-1.13.357-2.29.851-2.909 1.489-.511.527-.603 1.138-.254 1.677.237.366.563.557.929.557.141 0 .287-.028.437-.086.54-.207 1.124-.794 1.784-1.797.213-.324.429-.683.644-1.073l.239-.069a22.944 22.944 0 0 1 4.054-.737c.785.759 1.597 1.351 2.29 1.513.761.178 1.365-.171 1.614-.932.151-.461-.023-.895-.465-1.162-.455-.275-1.245-.407-2.349-.395-.235.003-.483.012-.741.028a17.52 17.52 0 0 1-1.508-1.797 17.794 17.794 0 0 1-1.02-1.543c.032-.109.062-.216.09-.322.314-1.166.426-2.058.333-2.653-.135-.859-.689-.981-.921-.993-.79-.043-1.322.356-1.423 1.066-.08.564.109 1.341.564 2.307.108.23.229.467.362.709a26.434 26.434 0 0 1-1.752 4.21zm-2.208 2.802c-.033.004-.088.011-.183-.135-.077-.119-.081-.208-.015-.331.153-.286.678-.688 1.692-1.103-.708 1.098-1.237 1.536-1.494 1.568zm10.17-2.575c-.001.006-.002.016-.008.031-.115.35-.269.383-.532.322-.32-.075-.727-.312-1.181-.674 1.229.01 1.658.231 1.721.32zm-6.226-7.323c.019-.131.04-.279.39-.279l.07.002c.105.128.159.695-.084 1.819-.285-.654-.425-1.198-.376-1.541zm.64 3.924a19.429 19.429 0 0 0 1.746 2.294 23.469 23.469 0 0 0-2.922.541 27.231 27.231 0 0 0 1.175-2.835z"/></symbol><symbol id="icon-area" viewBox="0 0 32 32"><path d="M29.854 7.783H11.017a2.036 2.036 0 0 0-2.036 2.036v18.837c0 1.125.912 2.036 2.036 2.036h18.837a2.036 2.036 0 0 0 2.036-2.036V9.819a2.036 2.036 0 0 0-2.036-2.036zm1.018 2.037v18.837a.997.997 0 0 1-.038.26l-9.679-9.679 9.679-9.679c.024.085.036.172.038.26zm-1.018-1.018a.99.99 0 0 1 .26.038l-9.679 9.679-9.679-9.679a.997.997 0 0 1 .26-.038h18.837zM10.036 28.917a1.04 1.04 0 0 1-.038-.26V9.82a.997.997 0 0 1 .038-.26l9.679 9.679-9.679 9.679zm.981.758a.997.997 0 0 1-.26-.038l9.679-9.679 9.679 9.679a.997.997 0 0 1-.26.038H11.018zM1.852 8.802h5.091a.51.51 0 0 0 0-1.018H1.852a.51.51 0 0 0 0 1.018zM1.852 30.693h5.091a.51.51 0 0 0 0-1.018H1.852a.51.51 0 0 0 0 1.018zM6.552 13.714a.51.51 0 0 0 .783-.651l-2.546-3.055a.526.526 0 0 0-.782 0l-2.546 3.055a.508.508 0 1 0 .783.651l1.645-1.974v15.007l-1.645-1.974a.51.51 0 0 0-.783.651l2.546 3.055a.51.51 0 0 0 .782 0l2.546-3.055a.51.51 0 0 0-.783-.652l-1.645 1.974V11.739l1.645 1.974zM31.381.15a.51.51 0 0 0-.509.509V5.75a.51.51 0 0 0 1.018 0V.659a.51.51 0 0 0-.509-.509zM9.489.15a.51.51 0 0 0-.509.509V5.75a.51.51 0 0 0 1.018 0V.659A.51.51 0 0 0 9.489.15zM14.973.334a.507.507 0 0 0-.717-.065l-3.055 2.546a.51.51 0 0 0 0 .782l3.055 2.546a.508.508 0 0 0 .828-.304.51.51 0 0 0-.175-.478l-1.975-1.645h15.007l-1.975 1.645a.509.509 0 0 0 .653.782l3.055-2.546a.51.51 0 0 0 0-.782L26.619.269a.508.508 0 0 0-.828.304.51.51 0 0 0 .175.478l1.975 1.645H12.934l1.975-1.645a.51.51 0 0 0 .065-.717z"/></symbol><symbol id="icon-download" viewBox="0 0 32 32"><path fill="none" stroke="#f4d059" style="stroke:var(--color2,#f4d059)" stroke-linejoin="round" stroke-linecap="round" stroke-width="1.28" d="M26.896 20.28v5.12a2.56 2.56 0 0 1-2.56 2.56H6.416a2.56 2.56 0 0 1-2.56-2.56v-5.12M8.976 13.88l6.4 6.4 6.4-6.4M15.376 20.28V4.92"/></symbol><symbol id="icon-time" viewBox="0 0 32 32"><path fill="none" stroke="#f4d059" style="stroke:var(--color2,#f4d059)" stroke-linejoin="round" stroke-linecap="round" stroke-miterlimit="10" stroke-width=".864" d="M22.974 7.621a10.845 10.845 0 0 1 2.877 7.372c0 6.01-4.872 10.882-10.882 10.882S4.087 21.003 4.087 14.993 8.959 4.111 14.969 4.111c.449 0 .892.027 1.327.08"/><path fill="none" stroke="#f4d059" style="stroke:var(--color2,#f4d059)" stroke-linejoin="round" stroke-linecap="round" stroke-miterlimit="10" stroke-width=".864" d="M10.707 8.218a8.002 8.002 0 0 1 9.919 1.117c3.125 3.125 3.125 8.191 0 11.316a8.001 8.001 0 0 1-12.424-9.933M22.897 9.238v-1.68h1.68"/><path fill="none" stroke="#f4d059" style="stroke:var(--color2,#f4d059)" stroke-linejoin="round" stroke-linecap="round" stroke-miterlimit="10" stroke-width=".864" d="M13.888 14.992a1.081 1.081 0 1 0 2.162 0 1.081 1.081 0 0 0-2.162 0zM21.262 15h-.545M8.676 14.988h.545M14.976 8.699v.545M14.962 21.284v-.545M14.204 14.229l-1.764-1.764M15.732 14.229l3.289-3.289"/></symbol><symbol id="icon-discount" viewBox="0 0 32 32"><path fill="#f4d059" style="fill:var(--color2,#f4d059)" d="M17.723 12.899a1.37 1.37 0 0 0-1.846-.576l-5.513 2.892a1.366 1.366 0 0 0-.576 1.846l3.022 5.762a1.37 1.37 0 0 0 1.847.576l5.513-2.892a1.367 1.367 0 0 0 .576-1.846l-3.022-5.762zm2.138 7.019-5.513 2.892a.703.703 0 0 1-.948-.295l-3.022-5.762a.701.701 0 0 1 .295-.947l5.513-2.892a.702.702 0 0 1 .948.296l3.022 5.762a.7.7 0 0 1-.296.947z"/><path fill="#f4d059" style="fill:var(--color2,#f4d059)" d="m22.309 15.645 3.006-3.921c.246-.323.286-.749.107-1.112a1.039 1.039 0 0 0-.942-.586h-.23V6.561c0-.726-.589-1.315-1.315-1.315h-2.919c-.726 0-1.315.589-1.315 1.315v3.465h-.23a.961.961 0 0 0-.107.007l-.709-1.355a1.827 1.827 0 0 0-2.463-.766l-.586.306-.543-1.038a1.31 1.31 0 0 0-1.767-.549l-1.182.619c-.682-.702-1.694-1.215-2.823-1.411-2.303-.406-4.407.589-4.693 2.22-.29 1.631 1.351 3.285 3.651 3.691.15.027.296.043.443.057l.017.03-.586.306a1.826 1.826 0 0 0-.769 2.463l5.489 10.465a1.826 1.826 0 0 0 2.463.769l8.072-4.231a1.826 1.826 0 0 0 .766-2.466l-1.624-3.092a1.07 1.07 0 0 0 .789-.406zM7.164 10.802l.15.283c-1.911-.356-3.282-1.654-3.059-2.913.223-1.265 1.981-2.02 3.921-1.678.915.16 1.741.546 2.323 1.079L7.716 9.031a1.313 1.313 0 0 0-.553 1.771zm15.391 8.651c.293.565.09 1.259-.486 1.568l-8.068 4.231a1.16 1.16 0 0 1-1.564-.489L6.945 14.298a1.16 1.16 0 0 1 .489-1.564l.879-.459c.16-.083.22-.28.143-.439.746-.023 1.435-.193 2.004-.483.391.285.938.366 1.448.103a1.383 1.383 0 0 0 .582-1.864 1.385 1.385 0 0 0-1.867-.582 1.383 1.383 0 0 0-.599 1.824c-.533.243-1.195.366-1.911.339l-.359-.679a.648.648 0 0 1 .273-.872l4.577-2.4a.647.647 0 0 1 .872.27l.699 1.331a.33.33 0 0 0 .449.14l.879-.459a1.154 1.154 0 0 1 1.561.486l.692 1.321a1.054 1.054 0 0 0-.123 1.415l2.749 3.585 2.174 4.144zm-11.956-8.964a.72.72 0 0 1 .333-.892.695.695 0 0 1 .33-.08c-.093.379-.326.709-.662.972zm1.262-.645c.013.017.027.033.04.057a.719.719 0 0 1-.303.965.704.704 0 0 1-.499.06c.36-.3.622-.666.762-1.082zm9.303 5.395-3.002-3.921a.389.389 0 0 1 .31-.626h.563c.183 0 .333-.15.333-.333V6.561a.65.65 0 0 1 .649-.649h2.919c.36 0 .649.29.649.649v3.798c0 .183.15.333.333.333h.563c.15 0 .28.08.346.216s.053.29-.04.409l-3.006 3.921c-.146.19-.469.19-.616 0z"/><path fill="#f4d059" style="fill:var(--color2,#f4d059)" d="M16.025 15.233a.334.334 0 0 0-.397.254l-.983 4.474a.334.334 0 0 0 .651.144l.983-4.474a.334.334 0 0 0-.253-.397zM14.47 16.329a1.093 1.093 0 1 0-1.944 1.004c.277.535.937.747 1.475.47.539-.278.747-.938.47-1.474zm-.775.883a.428.428 0 1 1 .184-.577.428.428 0 0 1-.184.577zM16.804 17.921a1.093 1.093 0 1 0 1.474.469 1.096 1.096 0 0 0-1.475-.47zm.699 1.353a.428.428 0 1 1 .184-.577c.11.213.025.47-.184.578z"/></symbol><symbol id="icon-quality" viewBox="0 0 32 32"><path fill="#f4d059" style="fill:var(--color2,#f4d059)" d="M17.096 16.052v-.831h2.538v-2.896h-1.437l5.57-7.246h-3.811l-3.948 5.128-3.948-5.128H8.249l5.575 7.246h-1.437v2.896h2.537v.831a5.798 5.798 0 0 0-4.708 5.69c0 3.196 2.599 5.796 5.796 5.796s5.796-2.599 5.796-5.796a5.81 5.81 0 0 0-4.712-5.69zM20.31 5.804h1.985l-5.018 6.521h-1.985l1.118-1.454.053-.066 3.846-5zm-8.603 0 3.846 5-.99 1.291-4.841-6.291h1.985zm1.402 8.691v-1.45H18.9v1.45h-5.791zm2.537 1.45v-.725h.725v.725h-.725zm.363 10.867a5.077 5.077 0 0 1-5.071-5.071 5.077 5.077 0 0 1 5.071-5.071 5.077 5.077 0 0 1 5.071 5.071 5.074 5.074 0 0 1-5.071 5.071z"/><path fill="#f4d059" style="fill:var(--color2,#f4d059)" d="M16.009 17.396c-2.396 0-4.346 1.95-4.346 4.346s1.95 4.346 4.346 4.346 4.346-1.95 4.346-4.346a4.351 4.351 0 0 0-4.346-4.346zm0 7.967a3.626 3.626 0 0 1-3.621-3.621 3.626 3.626 0 0 1 3.621-3.621 3.626 3.626 0 0 1 3.621 3.621 3.623 3.623 0 0 1-3.621 3.621z"/><path fill="#f4d059" style="fill:var(--color2,#f4d059)" d="m16.008 18.756-.654 2.02h-2.122l1.72 1.247-.663 2.02 1.72-1.247 1.72 1.247-.659-2.016 1.72-1.247h-2.122l-.659-2.025zm.341 3.391-.34-.248-.34.248.128-.398-.34-.248h.42l.128-.398.128.398h.42l-.34.248.137.398zM15.647 13.412h.725v.725h-.725v-.725zM17.096 13.412h.725v.725h-.725v-.725zM14.197 13.412h.725v.725h-.725v-.725z"/></symbol><symbol id="icon-flexibility" viewBox="0 0 32 32"><path fill="#f4d059" style="fill:var(--color2,#f4d059)" d="M16.369 18.476c1.56 0 2.829-1.269 2.829-2.829s-1.269-2.829-2.829-2.829c-1.56 0-2.829 1.269-2.829 2.829s1.269 2.829 2.829 2.829zm0-4.952c1.17 0 2.122.952 2.122 2.122s-.952 2.122-2.122 2.122-2.122-.952-2.122-2.122.952-2.122 2.122-2.122z"/><path fill="#f4d059" style="fill:var(--color2,#f4d059)" d="M16.369 17.061a1.416 1.416 0 1 0-.001-2.829 1.416 1.416 0 0 0 .001 2.829zm0-2.122a.708.708 0 1 1-.001 1.415.708.708 0 0 1 .001-1.415z"/><path fill="#f4d059" style="fill:var(--color2,#f4d059)" d="m14.046 19.824.618-.296c.055.024.111.048.167.069l.227.646h2.622l.228-.646c.056-.022.111-.045.167-.069l.618.296 1.855-1.855-.296-.618a3.45 3.45 0 0 0 .069-.167l.645-.227v-2.622l-.646-.228a5.888 5.888 0 0 0-.069-.167l.296-.618-1.855-1.855-.618.296a3.45 3.45 0 0 0-.167-.069l-.227-.645h-2.622l-.228.646a5.888 5.888 0 0 0-.167.069l-.618-.296-1.855 1.855.296.618a3.45 3.45 0 0 0-.069.167l-.645.227v2.622l.646.228.069.167-.296.618 1.855 1.854zm-1.567-3.367v-1.621l.492-.174.056-.162c.046-.135.103-.272.169-.406l.075-.154-.226-.472 1.147-1.147.472.226.154-.075c.134-.066.27-.122.406-.169l.162-.056.173-.492h1.622l.174.492.162.056c.135.046.272.103.406.169l.154.075.472-.226 1.147 1.147-.226.472.075.154c.066.134.122.27.169.406l.056.162.492.173v1.622l-.492.174-.056.162a3.355 3.355 0 0 1-.169.406l-.075.154.226.472-1.147 1.147-.472-.226-.154.075c-.134.066-.27.122-.406.169l-.162.055-.173.492H15.56l-.174-.492-.162-.055a3.423 3.423 0 0 1-.406-.169l-.154-.075-.472.226-1.147-1.147.226-.472-.075-.154a3.524 3.524 0 0 1-.169-.406l-.056-.162-.492-.173zM10.003 20.951H6.466c-.585 0-1.061.476-1.061 1.061v3.537c0 .585.476 1.061 1.061 1.061h3.537c.585 0 1.061-.476 1.061-1.061v-3.537c0-.585-.476-1.061-1.061-1.061zm.354 4.598a.355.355 0 0 1-.354.354H6.466a.355.355 0 0 1-.354-.354v-3.537c0-.195.159-.354.354-.354h3.537c.195 0 .354.159.354.354v3.537zM26.272 12.817h-3.537c-.585 0-1.061.476-1.061 1.061v3.537c0 .585.476 1.061 1.061 1.061h3.537c.585 0 1.061-.476 1.061-1.061v-3.537c0-.585-.476-1.061-1.061-1.061zm.353 4.598a.355.355 0 0 1-.354.354h-3.537a.355.355 0 0 1-.354-.354v-3.537c0-.195.159-.354.354-.354h3.537c.195 0 .354.159.354.354v3.537zM8.589 10.341h3.537c.585 0 1.061-.476 1.061-1.061V5.743c0-.585-.476-1.061-1.061-1.061H8.589c-.585 0-1.061.476-1.061 1.061V9.28c0 .585.476 1.061 1.061 1.061zm-.354-4.597c0-.195.159-.354.354-.354h3.537c.195 0 .354.159.354.354v3.537a.355.355 0 0 1-.354.354H8.589a.355.355 0 0 1-.354-.354V5.744z"/><path fill="#f4d059" style="fill:var(--color2,#f4d059)" d="m7.528 24.341-.457-.457-.5.5.957.957L9.9 22.969l-.5-.5-1.872 1.872zM12.022 6.701l-.5-.5L9.65 8.073l-.457-.457-.5.5.957.957 2.372-2.372zM23.796 16.207l-.457-.457-.5.5.957.957 2.372-2.372-.5-.5-1.872 1.872zM21.588 20.255l.171.686 2.01-.502a8.797 8.797 0 0 1-7.401 4.05 8.763 8.763 0 0 1-3.706-.812l-.297.642a9.469 9.469 0 0 0 4.003.877 9.5 9.5 0 0 0 7.91-4.245l.227 1.814.702-.088-.403-3.225-3.216.804zM9.287 17.141l-.688-.164-.431 1.806c-.423-1.047-.639-2.099-.639-3.138 0-1.305.278-2.562.825-3.735l-.641-.299a9.483 9.483 0 0 0-.891 4.035c0 1.126.232 2.261.684 3.388l-1.575-.868-.342.62 2.921 1.61.777-3.252zM16.92 7.573l-1.15-.767h.6a8.822 8.822 0 0 1 7.846 4.761l.627-.327a9.526 9.526 0 0 0-8.473-5.141h-.6l1.15-.767-.392-.588-2.564 1.709 2.563 1.709.392-.588z"/></symbol><symbol id="icon-instagram" viewBox="0 0 32 32"><path fill="#fff" style="fill:var(--color3,#fff)" d="M16.2 3.481c4.005 0 4.485.015 6.06.09.945.015 1.89.18 2.79.51.645.24 1.245.63 1.725 1.11.495.48.885 1.08 1.125 1.725.33.885.51 1.83.51 2.79.075 1.59.09 2.07.09 6.06s-.015 4.47-.09 6.045a8.493 8.493 0 0 1-.51 2.79 5.027 5.027 0 0 1-2.85 2.85c-.9.33-1.83.51-2.79.51-1.59.06-2.055.09-6.06.09s-4.485-.015-6.06-.09a8.9 8.9 0 0 1-2.79-.51 4.712 4.712 0 0 1-1.725-1.125A4.712 4.712 0 0 1 4.5 24.601a7.984 7.984 0 0 1-.51-2.79c-.075-1.56-.09-2.04-.09-6.045s.015-4.47.09-6.06c.015-.945.18-1.89.51-2.775.24-.645.63-1.245 1.125-1.725A4.84 4.84 0 0 1 7.35 4.081c.9-.33 1.83-.495 2.79-.51 1.575-.075 2.055-.09 6.06-.09zm0-2.7c-4.08 0-4.59.015-6.18.09a10.493 10.493 0 0 0-3.645.705 7.61 7.61 0 0 0-4.396 4.38 11.052 11.052 0 0 0-.69 3.63c-.075 1.605-.09 2.115-.09 6.18s.015 4.575.09 6.18a10.85 10.85 0 0 0 .705 3.645 7.683 7.683 0 0 0 4.38 4.38c1.17.435 2.4.66 3.645.69 1.605.075 2.115.09 6.18.09s4.59-.015 6.18-.09a11.215 11.215 0 0 0 3.645-.69 7.683 7.683 0 0 0 4.38-4.38c.435-1.17.675-2.4.705-3.645.075-1.605.09-2.115.09-6.18s-.015-4.59-.09-6.18a10.707 10.707 0 0 0-.705-3.63 7.626 7.626 0 0 0-4.38-4.38c-1.17-.435-2.4-.675-3.645-.705-1.59-.075-2.1-.09-6.18-.09zm0 7.29c-4.245 0-7.695 3.45-7.695 7.695s3.45 7.695 7.71 7.695a7.701 7.701 0 0 0 7.695-7.695 7.716 7.716 0 0 0-7.71-7.695zm0 12.69c-2.76 0-4.995-2.235-4.995-4.995s2.235-5.01 4.995-5.01a4.993 4.993 0 0 1 4.995 4.995v.015a4.993 4.993 0 0 1-4.995 4.995zm8.01-14.79c.99 0 1.8.81 1.8 1.8s-.81 1.8-1.8 1.8-1.785-.81-1.8-1.785c0-1.005.795-1.815 1.8-1.815-.015 0-.015 0 0 0z"/></symbol><symbol id="icon-arrow-right" viewBox="0 0 32 32"><path d="m19.414 27.414 10-10a2 2 0 0 0 0-2.828l-10-10a2 2 0 1 0-2.828 2.828L23.172 14H4a2 2 0 1 0 0 4h19.172l-6.586 6.586c-.39.39-.586.902-.586 1.414s.195 1.024.586 1.414a2 2 0 0 0 2.828 0z"/></symbol></defs></svg>