<svg aria-hidden="true" style="position: absolute; width: 0; height: 0; overflow: hidden;" version="1.1" xmlns="http://www.w3.org/2000/svg" xmlns:xlink="http://www.w3.org/1999/xlink">
  <defs>
    <symbol id="icon-minus" viewBox="0 0 32 32">
       <path fill="none" stroke="#00204a" style="stroke: var(--color1, #00204a)" stroke-linejoin="miter" stroke-linecap="butt" stroke-miterlimit="4" stroke-width="1.5238" d="M0.487 15.631h31.014"></path>
    </symbol>
    <symbol id="icon-plus" viewBox="0 0 32 32">
       <path fill="none" stroke="#00204a" style="stroke: var(--color1, #00204a)" stroke-linejoin="miter" stroke-linecap="butt" stroke-miterlimit="4" stroke-width="1.5238" d="M16.754 0.296v31.014"></path>
       <path fill="none" stroke="#00204a" style="stroke: var(--color1, #00204a)" stroke-linejoin="miter" stroke-linecap="butt" stroke-miterlimit="4" stroke-width="1.5238" d="M0.487 15.042h31.014"></path>
    </symbol>
    <symbol id="icon-bed" viewBox="0 0 32 32">
       <path d="M29.103 15.32v-6.020c0-0.726-0.59-1.316-1.316-1.316h-22.418c-0.726 0-1.316 0.59-1.316 1.316v6.020c-1.428 0.705-1.794 1.44-1.794 2.007v6.321c0 0.479 0.389 0.868 0.868 0.868h0.978c0.412 0 0.77-0.293 0.851-0.698l0.232-1.16c0.044-0.222 0.241-0.384 0.468-0.384h21.845c0.227 0 0.424 0.161 0.468 0.384l0.232 1.161c0.081 0.404 0.439 0.698 0.851 0.698h0.977c0.479 0 0.868-0.389 0.868-0.868v-6.321c0-0.567-0.365-1.301-1.794-2.007zM4.891 9.301c0-0.263 0.214-0.477 0.477-0.477h22.418c0.263 0 0.477 0.214 0.477 0.477v5.658c-0.493-0.187-1.073-0.369-1.754-0.543-0.13-0.033-0.262-0.065-0.395-0.097 0.191-0.285 0.299-0.624 0.299-0.983v-1.345c0-0.973-0.792-1.765-1.765-1.765h-6.725c-0.539 0-1.021 0.243-1.345 0.624-0.324-0.382-0.807-0.624-1.345-0.624h-6.726c-0.973 0-1.765 0.792-1.765 1.765v1.345c0 0.357 0.108 0.697 0.3 0.983-0.134 0.032-0.266 0.064-0.396 0.097-0.681 0.174-1.261 0.356-1.754 0.543v-5.658zM25.574 11.991v1.345c0 0.317-0.159 0.605-0.42 0.775-2.34-0.462-5.17-0.722-8.157-0.744v-1.376h0c0-0.51 0.415-0.926 0.926-0.926h6.725c0.51 0 0.926 0.415 0.926 0.926zM16.158 11.991v1.376c-2.986 0.022-5.817 0.282-8.157 0.745-0.261-0.17-0.42-0.461-0.42-0.775v-1.345c0-0.51 0.415-0.926 0.926-0.926h6.726c0.51 0 0.926 0.415 0.926 0.926zM30.058 23.648c0 0.016-0.013 0.029-0.029 0.029h-0.977c-0.014 0-0.026-0.010-0.028-0.023l-0.232-1.161c-0.123-0.613-0.665-1.058-1.291-1.058h-21.845c-0.625 0-1.168 0.445-1.291 1.058l-0.232 1.161c-0.003 0.013-0.015 0.023-0.028 0.023h-0.978c-0.016 0-0.029-0.013-0.029-0.029v-3.616h22.896c0.232 0 0.419-0.188 0.419-0.42s-0.188-0.419-0.419-0.419h-22.896v-1.866c0-0.552 0.987-1.393 3.755-2.099 2.592-0.661 6.046-1.025 9.725-1.025s7.132 0.364 9.725 1.025c2.769 0.706 3.755 1.547 3.755 2.099v1.866h-2.271c-0.232 0-0.42 0.188-0.42 0.419s0.188 0.42 0.42 0.42h2.271v3.616z"></path>
    </symbol>
    <symbol id="icon-bath" viewBox="0 0 32 32">
       <path d="M30.362 16.957h-0.509v-10.691c0-2.546-2.036-4.582-4.582-4.582-2.253 0-3.874 1.671-4.056 4.119-1.183 0.224-2.054 1.243-2.054 2.499 0 0.305 0.204 0.509 0.509 0.509h4.073c0.305 0 0.509-0.204 0.509-0.509 0-1.243-0.851-2.253-2.015-2.492 0.152-1.618 1.124-3.108 3.033-3.108 1.986 0 3.564 1.578 3.564 3.564v10.691h-15.323c-0.23-1.174-1.246-2.036-2.496-2.036-0.509-0.611-1.222-1.018-2.036-1.018-0.967 0-1.833 0.56-2.24 1.375-0.407-0.204-0.865-0.356-1.324-0.356-1.251 0-2.266 0.862-2.496 2.036h-0.049c-0.866 0-1.527 0.662-1.527 1.527s0.662 1.527 1.527 1.527h0.612l1.374 5.448c0.407 1.578 1.833 2.698 3.462 2.698h0.407l-0.662 1.324c-0.153 0.255-0.051 0.56 0.204 0.662 0.051 0.051 0.153 0.051 0.204 0.051 0.204 0 0.356-0.102 0.458-0.255l0.891-1.782h14.128l0.866 1.731c0.102 0.204 0.255 0.305 0.458 0.305 0.102 0 0.153 0 0.204-0.102 0.204-0.102 0.305-0.407 0.204-0.662l-0.638-1.276c1.576-0.056 2.939-1.157 3.336-2.645l1.386-5.499h0.599c0.866 0 1.527-0.662 1.527-1.527s-0.662-1.527-1.527-1.527zM23.184 7.793h-2.902c0.204-0.611 0.815-1.018 1.477-1.018s1.222 0.407 1.425 1.018zM5.416 15.939c0.458 0 0.865 0.204 1.222 0.56 0.102 0.153 0.305 0.204 0.509 0.153s0.305-0.204 0.356-0.407c0.153-0.764 0.764-1.324 1.527-1.324 0.56 0 1.069 0.255 1.324 0.764 0.102 0.204 0.356 0.305 0.56 0.255 0.051 0 0.102 0 0.153 0 0.662 0 1.222 0.407 1.425 1.018h-8.502c0.204-0.611 0.764-1.018 1.426-1.018zM27.46 25.204c-0.305 1.12-1.324 1.935-2.494 1.935h-16.597c-1.171 0-2.189-0.815-2.495-1.935l-1.324-5.193h24.132l-1.222 5.193zM30.362 18.993h-27.492c-0.305 0-0.509-0.204-0.509-0.509s0.204-0.509 0.509-0.509h27.492c0.305 0 0.509 0.204 0.509 0.509s-0.204 0.509-0.509 0.509z"></path>
       <path d="M19.673 11.106c0.305 0 0.509-0.204 0.509-0.509v-0.255c0-0.305-0.204-0.509-0.509-0.509s-0.509 0.204-0.509 0.509v0.255c0 0.305 0.204 0.509 0.509 0.509z"></path>
       <path d="M19.673 13.445c0.305 0 0.509-0.255 0.509-0.509v-0.56c0-0.305-0.204-0.509-0.509-0.509s-0.509 0.204-0.509 0.509v0.56c0 0.305 0.204 0.509 0.509 0.509z"></path>
       <path d="M19.673 15.431c0.305 0 0.509-0.204 0.509-0.509v-0.255c0-0.305-0.204-0.509-0.509-0.509s-0.509 0.204-0.509 0.509v0.255c0 0.305 0.204 0.509 0.509 0.509z"></path>
       <path d="M21.706 11.106c0.305 0 0.509-0.204 0.509-0.509v-0.255c0-0.305-0.204-0.509-0.509-0.509s-0.509 0.204-0.509 0.509v0.255c0 0.305 0.204 0.509 0.509 0.509z"></path>
       <path d="M21.197 12.936c0 0.305 0.204 0.509 0.509 0.509s0.509-0.255 0.509-0.509v-0.56c0-0.305-0.204-0.509-0.509-0.509s-0.509 0.204-0.509 0.509v0.56z"></path>
       <path d="M21.197 14.922c0 0.305 0.204 0.509 0.509 0.509s0.509-0.204 0.509-0.509v-0.255c0-0.305-0.204-0.509-0.509-0.509s-0.509 0.204-0.509 0.509v0.255z"></path>
       <path d="M23.744 11.106c0.305 0 0.509-0.204 0.509-0.509v-0.255c0-0.305-0.204-0.509-0.509-0.509s-0.509 0.204-0.509 0.509v0.255c0 0.305 0.204 0.509 0.509 0.509z"></path>
       <path d="M23.234 12.936c0 0.305 0.204 0.509 0.509 0.509s0.509-0.255 0.509-0.509v-0.56c0-0.305-0.204-0.509-0.509-0.509s-0.509 0.204-0.509 0.509v0.56z"></path>
       <path d="M23.234 14.922c0 0.305 0.204 0.509 0.509 0.509s0.509-0.204 0.509-0.509v-0.255c0-0.305-0.204-0.509-0.509-0.509s-0.509 0.204-0.509 0.509v0.255z"></path>
    </symbol>
    <symbol id="icon-roof" viewBox="0 0 32 32">
        <path d="M5.388 19.511v5.746c0 0.247 0.2 0.447 0.447 0.447h21.478c0.247 0 0.448-0.2 0.448-0.447v-1.272l1.084 0.769c0.136 0.097 0.315 0.109 0.464 0.032 0.15-0.076 0.243-0.23 0.243-0.397v-2.712c0-0.145-0.070-0.281-0.189-0.365l-12.34-8.762v-1.295l2.436-1.729c0.202-0.143 0.25-0.422 0.106-0.625l-1.282-1.807c-0.069-0.097-0.174-0.162-0.29-0.183s-0.237 0.008-0.334 0.077l-13.871 9.849c-0.119 0.084-0.189 0.22-0.189 0.365v2.712c0 0.167 0.093 0.321 0.243 0.397 0.149 0.077 0.328 0.064 0.464-0.032l1.084-0.769zM16.128 11.89l-9.844 6.986v5.934h20.583v-1.46l-10.55-7.486c-0.118-0.084-0.189-0.22-0.189-0.365v-3.609zM17.023 13.649v1.62l11.634 8.255v-1.614l-11.634-8.26zM17.812 7.978l0.764 1.077-14.083 9.994v-1.614l13.318-9.456z"></path>
    </symbol>
    <symbol id="icon-garage" viewBox="0 0 32 32">
        <path d="M31.38 5.523c0.281 0 0.509-0.228 0.509-0.509v-3.055c0-0.281-0.228-0.509-0.509-0.509h-29.529c-0.281 0-0.509 0.228-0.509 0.509v3.055c0 0.281 0.228 0.509 0.509 0.509h1.018v25.456h-1.018c-0.281 0-0.509 0.228-0.509 0.509s0.228 0.509 0.509 0.509h29.529c0.281 0 0.509-0.228 0.509-0.509s-0.228-0.509-0.509-0.509h-1.018v-25.456h1.018zM27.308 30.979h-21.383v-3.055h21.383v3.055zM27.308 26.906h-21.383v-3.055h21.383v3.055zM27.308 22.833h-21.383v-3.055h21.383v3.055zM27.308 18.76h-21.383v-3.055h21.383v3.055zM27.308 14.687h-21.383v-3.055h21.383v3.055zM27.308 10.614h-21.383v-3.055h21.383v3.055zM29.344 30.979h-1.018v-23.928c0-0.281-0.228-0.509-0.509-0.509h-22.401c-0.281 0-0.509 0.228-0.509 0.509v23.928h-1.018v-25.456h25.456v25.456zM2.361 4.505v-2.036h28.511v2.036h-28.511z"></path>
        <path d="M15.089 30.468h3.055c0.281 0 0.509-0.228 0.509-0.509s-0.228-0.509-0.509-0.509h-3.055c-0.281 0-0.509 0.228-0.509 0.509s0.228 0.509 0.509 0.509z"></path>
    </symbol>
    <symbol id="icon-floor" viewBox="0 0 32 32">
        <path d="M3.157 28.733c0 0.247 0.2 0.447 0.447 0.447h25.939c0.247 0 0.447-0.2 0.447-0.447v-6.452c0-0.247-0.2-0.447-0.447-0.447h-1.978v-6.005c0-0.247-0.2-0.447-0.447-0.447h-1.501v-6.005c0-0.247-0.2-0.447-0.447-0.447h-1.155v-6.005c0-0.247-0.2-0.447-0.447-0.447h-13.987c-0.247 0-0.447 0.2-0.447 0.447v6.005h-1.155c-0.247 0-0.447 0.2-0.447 0.447v6.005h-1.501c-0.247 0-0.447 0.2-0.447 0.447v6.005h-1.978c-0.247 0-0.447 0.2-0.447 0.447v6.452zM10.028 3.372h13.092v5.557h-13.092v-5.557zM8.426 9.824h16.296v5.557h-16.296v-5.557zM6.477 16.276h20.194v5.557h-20.194v-5.557zM4.052 22.728h25.044v5.558h-25.044v-5.558z"></path>
    </symbol>
    <symbol id="icon-zoom" viewBox="0 0 32 32">
        <path fill="#f4d059" style="fill: var(--color2, #f4d059)" d="M30.165 28.233l-8.186-8.186c3.73-4.538 3.476-11.274-0.762-15.512-4.509-4.508-11.844-4.508-16.353 0s-4.508 11.844 0 16.353c4.237 4.237 10.972 4.493 15.512 0.762l8.186 8.186c0.443 0.443 1.16 0.443 1.603 0s0.443-1.16 0-1.603zM19.613 19.285c-3.624 3.624-9.522 3.624-13.146 0s-3.624-9.522 0-13.146c3.624-3.624 9.522-3.625 13.146 0s3.624 9.522 0 13.146z"></path>
        <path fill="#f4d059" style="fill: var(--color2, #f4d059)" d="M18.592 11.572h-4.417v-4.417c0-0.626-0.508-1.134-1.134-1.134s-1.134 0.508-1.134 1.134v4.417h-4.417c-0.626 0-1.134 0.508-1.134 1.134s0.508 1.134 1.134 1.134h4.417v4.417c0 0.626 0.508 1.134 1.134 1.134s1.134-0.507 1.134-1.134v-4.417h4.417c0.626 0 1.134-0.508 1.134-1.134s-0.508-1.134-1.134-1.134z"></path>
    </symbol>
    <symbol id="icon-pdf" viewBox="0 0 33 32">
        <path fill="#00204a" style="fill: var(--color1, #00204a)" d="M30.175 5.072l-4.339-4.339c-0.273-0.272-0.635-0.423-1.020-0.423h-18.269c-0.795 0-1.443 0.647-1.443 1.443v14.284h-1.015c-1.067 0-1.934 0.868-1.934 1.934v8.847c0 1.067 0.868 1.934 1.934 1.934h15.236c0.796 0 1.443-0.647 1.443-1.443v-6.881c0-0.796-0.647-1.443-1.443-1.443h-15.236c-0.559 0-1.015-0.455-1.015-1.015s0.455-1.015 1.015-1.015h1.015v0.523c0 0.254 0.206 0.46 0.46 0.46s0.46-0.206 0.46-0.46v-15.727c0-0.288 0.235-0.523 0.523-0.523h17.725v4.455c0 0.525 0.427 0.951 0.951 0.951h4.455v23.622c0 0.288-0.235 0.523-0.523 0.523h-22.608c-0.288 0-0.523-0.235-0.523-0.523 0-0.254-0.206-0.46-0.46-0.46s-0.46 0.206-0.46 0.46c0 0.796 0.647 1.443 1.443 1.443h22.608c0.796 0 1.443-0.647 1.443-1.443v-24.167c0-0.385-0.15-0.748-0.422-1.020zM4.089 19.906h15.236c0.288 0 0.523 0.235 0.523 0.523v6.881c0 0.288-0.235 0.523-0.523 0.523h-15.236c-0.559 0-1.015-0.455-1.015-1.015v-7.2c0.295 0.183 0.643 0.288 1.015 0.288zM25.191 5.685v-4.296l4.328 4.328h-4.296c-0.017 0-0.032-0.014-0.032-0.032z"></path>
        <path fill="#00204a" style="fill: var(--color1, #00204a)" d="M15.184 26.28c0.254 0 0.46-0.206 0.46-0.46v-1.529h0.996c0.254 0 0.46-0.206 0.46-0.46s-0.206-0.46-0.46-0.46h-0.996v-0.995h1.122c0.254 0 0.46-0.206 0.46-0.46s-0.206-0.46-0.46-0.46h-1.582c-0.254 0-0.46 0.206-0.46 0.46v3.903c0 0.254 0.206 0.46 0.46 0.46z"></path>
        <path fill="#00204a" style="fill: var(--color1, #00204a)" d="M10.353 26.102c0.086 0.086 0.203 0.133 0.324 0.133h0.002c0.033-0 0.803-0.003 1.111-0.009 1.136-0.020 1.961-1.012 1.961-2.359 0-1.416-0.804-2.368-2.001-2.368h-1.081c-0.122 0-0.239 0.049-0.325 0.135s-0.135 0.204-0.134 0.326v3.753c0 0.032 0.003 0.062 0.009 0.092 0.007 0.112 0.055 0.217 0.134 0.296zM11.75 22.42c0.797 0 1.081 0.748 1.081 1.448 0 0.982-0.531 1.43-1.057 1.44-0.146 0.003-0.407 0.005-0.638 0.006-0.002-0.451-0.005-2.424-0.005-2.894h0.62z"></path>
        <path fill="#00204a" style="fill: var(--color1, #00204a)" d="M6.533 26.296c0.254 0 0.46-0.206 0.46-0.46v-1.251c0.228-0.001 0.488-0.002 0.635-0.002 0.877 0 1.591-0.704 1.591-1.569s-0.714-1.569-1.591-1.569h-1.095c-0.122 0-0.239 0.049-0.326 0.135s-0.134 0.203-0.134 0.325h-0v3.932c0 0.254 0.206 0.46 0.46 0.46zM7.628 22.364c0.364 0 0.671 0.298 0.671 0.65s-0.307 0.65-0.671 0.65c-0.146 0-0.402 0.001-0.63 0.002-0.001-0.235-0.003-1.056-0.004-1.302h0.634z"></path>
        <path fill="#00204a" style="fill: var(--color1, #00204a)" d="M15.147 13.644c-1.13 0.357-2.29 0.851-2.909 1.489-0.511 0.527-0.603 1.138-0.254 1.677 0.237 0.366 0.563 0.557 0.929 0.557 0.141 0 0.287-0.028 0.437-0.086 0.54-0.207 1.124-0.794 1.784-1.797 0.213-0.324 0.429-0.683 0.644-1.073 0.078-0.023 0.158-0.046 0.239-0.069 1.298-0.363 2.766-0.627 4.054-0.737 0.785 0.759 1.597 1.351 2.29 1.513 0.761 0.178 1.365-0.171 1.614-0.932 0.151-0.461-0.023-0.895-0.465-1.162-0.455-0.275-1.245-0.407-2.349-0.395-0.235 0.003-0.483 0.012-0.741 0.028-0.496-0.511-1.011-1.122-1.508-1.797-0.385-0.523-0.729-1.046-1.020-1.543 0.032-0.109 0.062-0.216 0.090-0.322 0.314-1.166 0.426-2.058 0.333-2.653-0.135-0.859-0.689-0.981-0.921-0.993-0.79-0.043-1.322 0.356-1.423 1.066-0.080 0.564 0.109 1.341 0.564 2.307 0.108 0.23 0.229 0.467 0.362 0.709-0.050 0.159-0.103 0.325-0.162 0.497-0.424 1.254-0.998 2.59-1.59 3.713zM12.939 16.446c-0.033 0.004-0.088 0.011-0.183-0.135-0.077-0.119-0.081-0.208-0.015-0.331 0.153-0.286 0.678-0.688 1.692-1.103-0.708 1.098-1.237 1.536-1.494 1.568zM23.109 13.871c-0.001 0.006-0.002 0.016-0.008 0.031-0.115 0.35-0.269 0.383-0.532 0.322-0.32-0.075-0.727-0.312-1.181-0.674 1.229 0.010 1.658 0.231 1.721 0.32zM16.883 6.548c0.019-0.131 0.040-0.279 0.39-0.279 0.022 0 0.045 0.001 0.070 0.002 0.105 0.128 0.159 0.695-0.084 1.819-0.285-0.654-0.425-1.198-0.376-1.541zM17.523 10.472c0.202 0.31 0.419 0.623 0.649 0.936 0.33 0.448 0.703 0.914 1.097 1.358-0.456 0.055-0.927 0.126-1.398 0.212-0.319 0.058-0.874 0.167-1.524 0.329 0.144-0.299 0.286-0.609 0.425-0.928 0.277-0.633 0.531-1.281 0.75-1.907z"></path>
    </symbol>
    <symbol id="icon-area" viewBox="0 0 32 32">
        <path d="M29.854 7.783h-18.837c-1.125 0-2.036 0.912-2.036 2.036v18.837c0 1.125 0.912 2.036 2.036 2.036h18.837c1.125 0 2.036-0.912 2.036-2.036v-18.837c0-1.125-0.912-2.036-2.036-2.036zM30.872 9.82v18.837c-0.001 0.088-0.014 0.175-0.038 0.26l-9.679-9.679 9.679-9.679c0.024 0.085 0.036 0.172 0.038 0.26zM29.854 8.802c0.088 0.001 0.176 0.014 0.26 0.038l-9.679 9.679-9.679-9.679c0.085-0.024 0.172-0.037 0.26-0.038h18.837zM10.036 28.917c-0.024-0.085-0.036-0.172-0.038-0.26v-18.837c0.001-0.088 0.014-0.175 0.038-0.26l9.679 9.679-9.679 9.679zM11.017 29.675c-0.088-0.001-0.175-0.014-0.26-0.038l9.679-9.679 9.679 9.679c-0.085 0.024-0.172 0.037-0.26 0.038h-18.837z"></path>
        <path d="M1.852 8.802h5.091c0.281 0 0.509-0.228 0.509-0.509s-0.228-0.509-0.509-0.509h-5.091c-0.281 0-0.509 0.228-0.509 0.509s0.228 0.509 0.509 0.509z"></path>
        <path d="M1.852 30.693h5.091c0.281 0 0.509-0.228 0.509-0.509s-0.228-0.509-0.509-0.509h-5.091c-0.281 0-0.509 0.228-0.509 0.509s0.228 0.509 0.509 0.509z"></path>
        <path d="M6.552 13.714c0.18 0.216 0.501 0.246 0.717 0.066s0.246-0.501 0.066-0.717l-2.546-3.055c-0.1-0.111-0.242-0.174-0.391-0.174s-0.292 0.063-0.391 0.174l-2.546 3.055c-0.18 0.216-0.151 0.537 0.066 0.717s0.537 0.151 0.717-0.066l1.645-1.974v15.007l-1.645-1.974c-0.18-0.216-0.501-0.246-0.717-0.066s-0.246 0.501-0.066 0.717l2.546 3.055c0.097 0.116 0.24 0.184 0.391 0.184s0.295-0.067 0.391-0.184l2.546-3.055c0.116-0.14 0.149-0.331 0.086-0.502s-0.212-0.295-0.391-0.326c-0.179-0.031-0.362 0.036-0.478 0.176l-1.645 1.974v-15.007l1.645 1.974z"></path>
        <path d="M31.381 0.15c-0.281 0-0.509 0.228-0.509 0.509v5.091c0 0.281 0.228 0.509 0.509 0.509s0.509-0.228 0.509-0.509v-5.091c0-0.281-0.228-0.509-0.509-0.509z"></path>
        <path d="M9.489 0.15c-0.281 0-0.509 0.228-0.509 0.509v5.091c0 0.281 0.228 0.509 0.509 0.509s0.509-0.228 0.509-0.509v-5.091c0-0.281-0.228-0.509-0.509-0.509z"></path>
        <path d="M14.973 0.334c-0.086-0.104-0.211-0.169-0.345-0.181s-0.269 0.030-0.372 0.116l-3.055 2.546c-0.116 0.097-0.183 0.24-0.183 0.391s0.067 0.294 0.183 0.391l3.055 2.546c0.14 0.117 0.331 0.15 0.502 0.087s0.295-0.212 0.326-0.391c0.031-0.179-0.036-0.362-0.175-0.478l-1.975-1.645h15.007l-1.975 1.645c-0.14 0.117-0.206 0.299-0.175 0.478s0.156 0.328 0.326 0.391c0.171 0.063 0.362 0.029 0.502-0.087l3.055-2.546c0.116-0.097 0.183-0.24 0.183-0.391s-0.067-0.294-0.183-0.391l-3.055-2.546c-0.14-0.117-0.331-0.15-0.502-0.087s-0.295 0.212-0.326 0.391 0.036 0.362 0.175 0.478l1.975 1.645h-15.007l1.975-1.645c0.216-0.18 0.245-0.501 0.065-0.717z"></path>
    </symbol>
    <symbol id="icon-download" viewBox="0 0 32 32">
        <path fill="none" stroke="#f4d059" style="stroke: var(--color2, #f4d059)" stroke-linejoin="round" stroke-linecap="round" stroke-miterlimit="4" stroke-width="1.28" d="M26.896 20.28v5.12c0 0.679-0.27 1.33-0.75 1.81s-1.131 0.75-1.81 0.75h-17.92c-0.679 0-1.33-0.27-1.81-0.75s-0.75-1.131-0.75-1.81v-5.12"></path>
        <path fill="none" stroke="#f4d059" style="stroke: var(--color2, #f4d059)" stroke-linejoin="round" stroke-linecap="round" stroke-miterlimit="4" stroke-width="1.28" d="M8.976 13.88l6.4 6.4 6.4-6.4"></path>
        <path fill="none" stroke="#f4d059" style="stroke: var(--color2, #f4d059)" stroke-linejoin="round" stroke-linecap="round" stroke-miterlimit="4" stroke-width="1.28" d="M15.376 20.28v-15.36"></path>
    </symbol>
    <symbol id="icon-time" viewBox="0 0 32 32">
        <path fill="none" stroke="#f4d059" style="stroke: var(--color2, #f4d059)" stroke-linejoin="round" stroke-linecap="round" stroke-miterlimit="10" stroke-width="0.8638" d="M22.974 7.621c1.786 1.939 2.877 4.528 2.877 7.372 0 6.010-4.872 10.882-10.882 10.882s-10.882-4.872-10.882-10.882c0-6.010 4.872-10.882 10.882-10.882 0.449 0 0.892 0.027 1.327 0.080"></path>
        <path fill="none" stroke="#f4d059" style="stroke: var(--color2, #f4d059)" stroke-linejoin="round" stroke-linecap="round" stroke-miterlimit="10" stroke-width="0.8638" d="M10.707 8.218c3.091-1.949 7.226-1.577 9.919 1.117 3.125 3.125 3.125 8.191 0 11.316s-8.191 3.125-11.316 0c-2.697-2.697-3.066-6.84-1.108-9.933"></path>
        <path fill="none" stroke="#f4d059" style="stroke: var(--color2, #f4d059)" stroke-linejoin="round" stroke-linecap="round" stroke-miterlimit="10" stroke-width="0.8638" d="M22.897 9.238v-1.68h1.68"></path>
        <path fill="none" stroke="#f4d059" style="stroke: var(--color2, #f4d059)" stroke-linejoin="round" stroke-linecap="round" stroke-miterlimit="10" stroke-width="0.8638" d="M13.888 14.992c0 0.597 0.484 1.081 1.081 1.081s1.081-0.484 1.081-1.081c0-0.597-0.484-1.081-1.081-1.081s-1.081 0.484-1.081 1.081z"></path>
        <path fill="none" stroke="#f4d059" style="stroke: var(--color2, #f4d059)" stroke-linejoin="round" stroke-linecap="round" stroke-miterlimit="10" stroke-width="0.8638" d="M21.262 15h-0.545"></path>
        <path fill="none" stroke="#f4d059" style="stroke: var(--color2, #f4d059)" stroke-linejoin="round" stroke-linecap="round" stroke-miterlimit="10" stroke-width="0.8638" d="M8.676 14.988h0.545"></path>
        <path fill="none" stroke="#f4d059" style="stroke: var(--color2, #f4d059)" stroke-linejoin="round" stroke-linecap="round" stroke-miterlimit="10" stroke-width="0.8638" d="M14.976 8.699v0.545"></path>
        <path fill="none" stroke="#f4d059" style="stroke: var(--color2, #f4d059)" stroke-linejoin="round" stroke-linecap="round" stroke-miterlimit="10" stroke-width="0.8638" d="M14.962 21.284v-0.545"></path>
        <path fill="none" stroke="#f4d059" style="stroke: var(--color2, #f4d059)" stroke-linejoin="round" stroke-linecap="round" stroke-miterlimit="10" stroke-width="0.8638" d="M14.204 14.229l-1.764-1.764"></path>
        <path fill="none" stroke="#f4d059" style="stroke: var(--color2, #f4d059)" stroke-linejoin="round" stroke-linecap="round" stroke-miterlimit="10" stroke-width="0.8638" d="M15.732 14.229l3.289-3.289"></path>
    </symbol>
    <symbol id="icon-discount" viewBox="0 0 32 32">
        <path fill="#f4d059" style="fill: var(--color2, #f4d059)" d="M17.723 12.899c-0.35-0.667-1.178-0.926-1.846-0.576l-5.513 2.892c-0.67 0.351-0.927 1.176-0.576 1.846l3.022 5.762c0.35 0.667 1.178 0.926 1.847 0.576l5.513-2.892c0.669-0.351 0.927-1.177 0.576-1.846l-3.022-5.762zM19.861 19.918l-5.513 2.892c-0.343 0.181-0.767 0.047-0.948-0.295l-3.022-5.762c-0.178-0.34-0.052-0.765 0.295-0.947l5.513-2.892c0.349-0.182 0.77-0.043 0.948 0.296l3.022 5.762c0.181 0.345 0.048 0.767-0.296 0.947z"></path>
        <path fill="#f4d059" style="fill: var(--color2, #f4d059)" d="M22.309 15.645l3.006-3.921c0.246-0.323 0.286-0.749 0.107-1.112-0.176-0.363-0.539-0.586-0.942-0.586h-0.23v-3.465c0-0.726-0.589-1.315-1.315-1.315h-2.919c-0.726 0-1.315 0.589-1.315 1.315v3.465h-0.23c-0.037 0-0.070 0.003-0.107 0.007l-0.709-1.355c-0.469-0.889-1.574-1.235-2.463-0.766l-0.586 0.306-0.543-1.038c-0.336-0.639-1.128-0.885-1.767-0.549l-1.182 0.619c-0.682-0.702-1.694-1.215-2.823-1.411-2.303-0.406-4.407 0.589-4.693 2.22-0.29 1.631 1.351 3.285 3.651 3.691 0.15 0.027 0.296 0.043 0.443 0.057l0.017 0.030-0.586 0.306c-0.892 0.466-1.235 1.571-0.769 2.463l5.489 10.465c0.477 0.91 1.604 1.231 2.463 0.769l8.072-4.231c0.888-0.468 1.237-1.565 0.766-2.466l-1.624-3.092c0.309-0.017 0.596-0.16 0.789-0.406zM7.164 10.802l0.15 0.283c-1.911-0.356-3.282-1.654-3.059-2.913 0.223-1.265 1.981-2.020 3.921-1.678 0.915 0.16 1.741 0.546 2.323 1.079l-2.783 1.458c-0.663 0.349-0.878 1.154-0.553 1.771zM22.555 19.453c0.293 0.565 0.090 1.259-0.486 1.568l-8.068 4.231c-0.566 0.296-1.268 0.077-1.564-0.489l-5.492-10.465c-0.296-0.566-0.077-1.268 0.489-1.564l0.879-0.459c0.16-0.083 0.22-0.28 0.143-0.439 0.746-0.023 1.435-0.193 2.004-0.483 0.391 0.285 0.938 0.366 1.448 0.103 0.674-0.351 0.934-1.188 0.582-1.864-0.356-0.676-1.192-0.935-1.867-0.582-0.659 0.346-0.922 1.158-0.599 1.824-0.533 0.243-1.195 0.366-1.911 0.339l-0.359-0.679c-0.159-0.305-0.052-0.703 0.273-0.872l4.577-2.4c0.316-0.166 0.706-0.043 0.872 0.27l0.699 1.331c0.082 0.163 0.289 0.227 0.449 0.14l0.879-0.459c0.539-0.289 1.253-0.101 1.561 0.486l0.692 1.321c-0.376 0.336-0.472 0.951-0.123 1.415l2.749 3.585 2.174 4.144zM10.599 10.489c-0.127-0.336 0.010-0.722 0.333-0.892 0.107-0.057 0.22-0.080 0.33-0.080-0.093 0.379-0.326 0.709-0.662 0.972zM11.861 9.844c0.013 0.017 0.027 0.033 0.040 0.057 0.18 0.353 0.043 0.789-0.303 0.965-0.156 0.083-0.33 0.1-0.499 0.060 0.36-0.3 0.622-0.666 0.762-1.082zM21.164 15.239l-3.002-3.921c-0.195-0.259-0.015-0.626 0.31-0.626h0.563c0.183 0 0.333-0.15 0.333-0.333v-3.798c0-0.359 0.293-0.649 0.649-0.649h2.919c0.36 0 0.649 0.29 0.649 0.649v3.798c0 0.183 0.15 0.333 0.333 0.333h0.563c0.15 0 0.28 0.080 0.346 0.216s0.053 0.29-0.040 0.409l-3.006 3.921c-0.146 0.19-0.469 0.19-0.616 0z"></path>
        <path fill="#f4d059" style="fill: var(--color2, #f4d059)" d="M16.025 15.233c-0.179-0.039-0.357 0.074-0.397 0.254l-0.983 4.474c-0.039 0.18 0.074 0.357 0.254 0.397 0.183 0.040 0.358-0.076 0.397-0.253l0.983-4.474c0.039-0.18-0.074-0.357-0.253-0.397z"></path>
        <path fill="#f4d059" style="fill: var(--color2, #f4d059)" d="M14.47 16.329c-0.277-0.535-0.938-0.746-1.474-0.47-0.539 0.278-0.747 0.938-0.47 1.474 0.277 0.535 0.937 0.747 1.475 0.47 0.539-0.278 0.747-0.938 0.47-1.474 0-0 0-0-0-0zM13.695 17.212c-0.211 0.11-0.469 0.027-0.578-0.184-0.107-0.207-0.030-0.466 0.184-0.577 0.21-0.109 0.469-0.025 0.578 0.184 0.107 0.208 0.029 0.467-0.184 0.577z"></path>
        <path fill="#f4d059" style="fill: var(--color2, #f4d059)" d="M16.804 17.921c-0.536 0.277-0.746 0.938-0.47 1.474s0.935 0.748 1.474 0.47c0.536-0.277 0.747-0.939 0.47-1.475s-0.937-0.747-1.475-0.47zM17.503 19.274c-0.211 0.108-0.468 0.028-0.577-0.184-0.109-0.21-0.026-0.469 0.184-0.577s0.469-0.026 0.577 0.184c0.11 0.213 0.025 0.47-0.184 0.578z"></path>
    </symbol>
    <symbol id="icon-quality" viewBox="0 0 32 32">
        <path fill="#f4d059" style="fill: var(--color2, #f4d059)" d="M17.096 16.052v-0.831h2.538v-2.896h-1.437l5.57-7.246h-3.811l-3.948 5.128-3.948-5.128h-3.811l5.575 7.246h-1.437v2.896h2.537v0.831c-2.679 0.508-4.708 2.865-4.708 5.69 0 3.196 2.599 5.796 5.796 5.796s5.796-2.599 5.796-5.796c-0.004-2.825-2.038-5.181-4.712-5.69zM20.31 5.804h1.985l-5.018 6.521h-1.985l1.118-1.454 0.053-0.066 3.846-5zM11.707 5.804l3.846 5-0.99 1.291-4.841-6.291h1.985zM13.109 14.495v-1.45h5.791v1.45h-5.791zM15.646 15.945v-0.725h0.725v0.725h-0.725zM16.009 26.812c-2.798 0-5.071-2.277-5.071-5.071 0-2.798 2.277-5.071 5.071-5.071 2.798 0 5.071 2.277 5.071 5.071 0 2.798-2.272 5.071-5.071 5.071z"></path>
        <path fill="#f4d059" style="fill: var(--color2, #f4d059)" d="M16.009 17.396c-2.396 0-4.346 1.95-4.346 4.346s1.95 4.346 4.346 4.346 4.346-1.95 4.346-4.346c0-2.396-1.95-4.346-4.346-4.346zM16.009 25.363c-1.998 0-3.621-1.627-3.621-3.621 0-1.998 1.627-3.621 3.621-3.621 1.998 0 3.621 1.627 3.621 3.621 0 1.998-1.622 3.621-3.621 3.621z"></path>
        <path fill="#f4d059" style="fill: var(--color2, #f4d059)" d="M16.008 18.756l-0.654 2.020h-2.122l1.72 1.247-0.663 2.020 1.72-1.247 1.72 1.247-0.659-2.016 1.72-1.247h-2.122l-0.659-2.025zM16.349 22.147l-0.34-0.248-0.34 0.248 0.128-0.398-0.34-0.248h0.42l0.128-0.398 0.128 0.398h0.42l-0.34 0.248 0.137 0.398z"></path>
        <path fill="#f4d059" style="fill: var(--color2, #f4d059)" d="M15.647 13.412h0.725v0.725h-0.725v-0.725z"></path>
        <path fill="#f4d059" style="fill: var(--color2, #f4d059)" d="M17.096 13.412h0.725v0.725h-0.725v-0.725z"></path>
        <path fill="#f4d059" style="fill: var(--color2, #f4d059)" d="M14.197 13.412h0.725v0.725h-0.725v-0.725z"></path>
    </symbol>
    <symbol id="icon-flexibility" viewBox="0 0 32 32">
        <path fill="#f4d059" style="fill: var(--color2, #f4d059)" d="M16.369 18.476c1.56 0 2.829-1.269 2.829-2.829s-1.269-2.829-2.829-2.829c-1.56 0-2.829 1.269-2.829 2.829s1.269 2.829 2.829 2.829zM16.369 13.524c1.17 0 2.122 0.952 2.122 2.122s-0.952 2.122-2.122 2.122c-1.17 0-2.122-0.952-2.122-2.122s0.952-2.122 2.122-2.122z"></path>
        <path fill="#f4d059" style="fill: var(--color2, #f4d059)" d="M16.369 17.061c0.78 0 1.415-0.634 1.415-1.415s-0.634-1.415-1.415-1.415c-0.78 0-1.415 0.634-1.415 1.415s0.635 1.415 1.415 1.415zM16.369 14.939c0.39 0 0.707 0.317 0.707 0.707s-0.317 0.707-0.707 0.707c-0.39 0-0.707-0.317-0.707-0.707s0.317-0.707 0.707-0.707z"></path>
        <path fill="#f4d059" style="fill: var(--color2, #f4d059)" d="M14.046 19.824l0.618-0.296c0.055 0.024 0.111 0.048 0.167 0.069l0.227 0.646h2.622l0.228-0.646c0.056-0.022 0.111-0.045 0.167-0.069l0.618 0.296 1.855-1.855-0.296-0.618c0.024-0.055 0.048-0.111 0.069-0.167l0.645-0.227v-2.622l-0.646-0.228c-0.022-0.056-0.045-0.111-0.069-0.167l0.296-0.618-1.855-1.855-0.618 0.296c-0.055-0.024-0.111-0.048-0.167-0.069l-0.227-0.645h-2.622l-0.228 0.646c-0.056 0.022-0.111 0.045-0.167 0.069l-0.618-0.296-1.855 1.855 0.296 0.618c-0.024 0.055-0.048 0.111-0.069 0.167l-0.645 0.227v2.622l0.646 0.228c0.022 0.055 0.045 0.111 0.069 0.167l-0.296 0.618 1.855 1.854zM12.479 16.457v-1.621l0.492-0.174 0.056-0.162c0.046-0.135 0.103-0.272 0.169-0.406l0.075-0.154-0.226-0.472 1.147-1.147 0.472 0.226 0.154-0.075c0.134-0.066 0.27-0.122 0.406-0.169l0.162-0.056 0.173-0.492h1.622l0.174 0.492 0.162 0.056c0.135 0.046 0.272 0.103 0.406 0.169l0.154 0.075 0.472-0.226 1.147 1.147-0.226 0.472 0.075 0.154c0.066 0.134 0.122 0.27 0.169 0.406l0.056 0.162 0.492 0.173v1.622l-0.492 0.174-0.056 0.162c-0.046 0.136-0.103 0.272-0.169 0.406l-0.075 0.154 0.226 0.472-1.147 1.147-0.472-0.226-0.154 0.075c-0.134 0.066-0.27 0.122-0.406 0.169l-0.162 0.055-0.173 0.492h-1.622l-0.174-0.492-0.162-0.055c-0.135-0.046-0.272-0.103-0.406-0.169l-0.154-0.075-0.472 0.226-1.147-1.147 0.226-0.472-0.075-0.154c-0.066-0.134-0.122-0.27-0.169-0.406l-0.056-0.162-0.492-0.173z"></path>
        <path fill="#f4d059" style="fill: var(--color2, #f4d059)" d="M10.003 20.951h-3.537c-0.585 0-1.061 0.476-1.061 1.061v3.537c0 0.585 0.476 1.061 1.061 1.061h3.537c0.585 0 1.061-0.476 1.061-1.061v-3.537c0-0.585-0.476-1.061-1.061-1.061zM10.357 25.549c0 0.195-0.159 0.354-0.354 0.354h-3.537c-0.195 0-0.354-0.159-0.354-0.354v-3.537c0-0.195 0.159-0.354 0.354-0.354h3.537c0.195 0 0.354 0.159 0.354 0.354v3.537z"></path>
        <path fill="#f4d059" style="fill: var(--color2, #f4d059)" d="M26.272 12.817h-3.537c-0.585 0-1.061 0.476-1.061 1.061v3.537c0 0.585 0.476 1.061 1.061 1.061h3.537c0.585 0 1.061-0.476 1.061-1.061v-3.537c0-0.585-0.476-1.061-1.061-1.061zM26.625 17.415c0 0.195-0.159 0.354-0.354 0.354h-3.537c-0.195 0-0.354-0.159-0.354-0.354v-3.537c0-0.195 0.159-0.354 0.354-0.354h3.537c0.195 0 0.354 0.159 0.354 0.354v3.537z"></path>
        <path fill="#f4d059" style="fill: var(--color2, #f4d059)" d="M8.589 10.341h3.537c0.585 0 1.061-0.476 1.061-1.061v-3.537c0-0.585-0.476-1.061-1.061-1.061h-3.537c-0.585 0-1.061 0.476-1.061 1.061v3.537c0 0.585 0.476 1.061 1.061 1.061zM8.235 5.744c0-0.195 0.159-0.354 0.354-0.354h3.537c0.195 0 0.354 0.159 0.354 0.354v3.537c0 0.195-0.159 0.354-0.354 0.354h-3.537c-0.195 0-0.354-0.159-0.354-0.354v-3.537z"></path>
        <path fill="#f4d059" style="fill: var(--color2, #f4d059)" d="M7.528 24.341l-0.457-0.457-0.5 0.5 0.957 0.957 2.372-2.372-0.5-0.5-1.872 1.872z"></path>
        <path fill="#f4d059" style="fill: var(--color2, #f4d059)" d="M12.022 6.701l-0.5-0.5-1.872 1.872-0.457-0.457-0.5 0.5 0.957 0.957 2.372-2.372z"></path>
        <path fill="#f4d059" style="fill: var(--color2, #f4d059)" d="M23.796 16.207l-0.457-0.457-0.5 0.5 0.957 0.957 2.372-2.372-0.5-0.5-1.872 1.872z"></path>
        <path fill="#f4d059" style="fill: var(--color2, #f4d059)" d="M21.588 20.255l0.171 0.686 2.010-0.502c-1.624 2.515-4.388 4.050-7.401 4.050-1.294 0-2.541-0.273-3.706-0.812l-0.297 0.642c1.259 0.582 2.605 0.877 4.003 0.877 3.204 0 6.146-1.606 7.91-4.245l0.227 1.814 0.702-0.088-0.403-3.225-3.216 0.804z"></path>
        <path fill="#f4d059" style="fill: var(--color2, #f4d059)" d="M9.287 17.141l-0.688-0.164-0.431 1.806c-0.423-1.047-0.639-2.099-0.639-3.138 0-1.305 0.278-2.562 0.825-3.735l-0.641-0.299c-0.591 1.268-0.891 2.626-0.891 4.035 0 1.126 0.232 2.261 0.684 3.388l-1.575-0.868-0.342 0.62 2.921 1.61 0.777-3.252z"></path>
        <path fill="#f4d059" style="fill: var(--color2, #f4d059)" d="M16.92 7.573l-1.15-0.767h0.6c3.308 0 6.315 1.824 7.846 4.761l0.627-0.327c-1.653-3.171-4.899-5.141-8.473-5.141h-0.6l1.15-0.767-0.392-0.588-2.564 1.709 2.563 1.709 0.392-0.588z"></path>
    </symbol>
    <symbol id="icon-instagram" viewBox="0 0 32 32">
        <path fill="#fff" style="fill: var(--color3, #fff)" d="M16.2 3.481c4.005 0 4.485 0.015 6.060 0.090 0.945 0.015 1.89 0.18 2.79 0.51 0.645 0.24 1.245 0.63 1.725 1.11 0.495 0.48 0.885 1.080 1.125 1.725 0.33 0.885 0.51 1.83 0.51 2.79 0.075 1.59 0.090 2.070 0.090 6.060s-0.015 4.47-0.090 6.045c-0.015 0.945-0.18 1.89-0.51 2.79-0.51 1.305-1.545 2.34-2.85 2.85-0.9 0.33-1.83 0.51-2.79 0.51-1.59 0.060-2.055 0.090-6.060 0.090s-4.485-0.015-6.060-0.090c-0.945-0.015-1.89-0.195-2.79-0.51-0.645-0.24-1.245-0.63-1.725-1.125-0.495-0.48-0.885-1.080-1.125-1.725-0.335-0.892-0.508-1.837-0.51-2.79-0.075-1.56-0.090-2.040-0.090-6.045s0.015-4.47 0.090-6.060c0.015-0.945 0.18-1.89 0.51-2.775 0.24-0.645 0.63-1.245 1.125-1.725 0.495-0.495 1.080-0.885 1.725-1.125 0.9-0.33 1.83-0.495 2.79-0.51 1.575-0.075 2.055-0.090 6.060-0.090zM16.2 0.781c-4.080 0-4.59 0.015-6.18 0.090-1.245 0.015-2.475 0.255-3.645 0.705-0.999 0.381-1.906 0.968-2.664 1.722s-1.347 1.66-1.732 2.658c-0.435 1.155-0.66 2.385-0.69 3.63-0.075 1.605-0.090 2.115-0.090 6.18s0.015 4.575 0.090 6.18c0.030 1.245 0.255 2.475 0.705 3.645 0.386 0.994 0.975 1.897 1.729 2.651s1.657 1.343 2.651 1.729c1.17 0.435 2.4 0.66 3.645 0.69 1.605 0.075 2.115 0.090 6.18 0.090s4.59-0.015 6.18-0.090c1.245-0.030 2.475-0.255 3.645-0.69 0.994-0.386 1.897-0.975 2.651-1.729s1.343-1.657 1.729-2.651c0.435-1.17 0.675-2.4 0.705-3.645 0.075-1.605 0.090-2.115 0.090-6.18s-0.015-4.59-0.090-6.18c-0.023-1.242-0.261-2.47-0.705-3.63-0.384-0.996-0.971-1.9-1.726-2.654s-1.659-1.342-2.654-1.726c-1.17-0.435-2.4-0.675-3.645-0.705-1.59-0.075-2.1-0.090-6.18-0.090zM16.2 8.071c-4.245 0-7.695 3.45-7.695 7.695s3.45 7.695 7.71 7.695c4.245 0 7.695-3.45 7.695-7.695-0.005-2.042-0.82-3.998-2.265-5.441s-3.403-2.253-5.445-2.254zM16.2 20.761c-2.76 0-4.995-2.235-4.995-4.995s2.235-5.010 4.995-5.010c2.76 0 4.995 2.235 4.995 4.995v0.015c0 2.76-2.235 4.995-4.995 4.995zM24.21 5.971c0.99 0 1.8 0.81 1.8 1.8s-0.81 1.8-1.8 1.8c-0.99 0-1.785-0.81-1.8-1.785 0-1.005 0.795-1.815 1.8-1.815-0.015 0-0.015 0 0 0z"></path>
    </symbol>
    <symbol id="icon-arrow-right" viewBox="0 0 32 32">
        <path d="M19.414 27.414l10-10c0.781-0.781 0.781-2.047 0-2.828l-10-10c-0.781-0.781-2.047-0.781-2.828 0s-0.781 2.047 0 2.828l6.586 6.586h-19.172c-1.105 0-2 0.895-2 2s0.895 2 2 2h19.172l-6.586 6.586c-0.39 0.39-0.586 0.902-0.586 1.414s0.195 1.024 0.586 1.414c0.781 0.781 2.047 0.781 2.828 0z"></path>
    </symbol>
  </defs>
</svg>
